<svg width="40" height="40" viewBox="0 0 40 40" fill="none" xmlns="http://www.w3.org/2000/svg">
<circle cx="20" cy="20" r="20" fill="#6F64F8"/>
<path fill-rule="evenodd" clip-rule="evenodd" d="M20.7843 21.4815C21.8672 21.4815 22.7451 20.6524 22.7451 19.6296C22.7451 18.6069 21.8672 17.7778 20.7843 17.7778C19.7014 17.7778 18.8235 18.6069 18.8235 19.6296C18.8235 20.6524 19.7014 21.4815 20.7843 21.4815Z" stroke="white" stroke-width="2" stroke-linecap="round" stroke-linejoin="round"/>
<path fill-rule="evenodd" clip-rule="evenodd" d="M25.1409 21.8182C24.9661 22.1922 25.05 22.629 25.3526 22.9212L25.3911 22.9576C25.6321 23.1849 25.7675 23.4935 25.7675 23.8152C25.7675 24.1369 25.6321 24.4454 25.3911 24.6727C25.1504 24.9003 24.8237 25.0282 24.4831 25.0282C24.1425 25.0282 23.8158 24.9003 23.5751 24.6727L23.5366 24.6364C23.2272 24.3505 22.7647 24.2713 22.3687 24.4364C21.9808 24.5934 21.7286 24.953 21.727 25.3515V25.4546C21.727 26.124 21.1523 26.6667 20.4435 26.6667C19.7347 26.6667 19.1601 26.124 19.1601 25.4546V25.4C19.1499 24.9895 18.8751 24.6266 18.4671 24.4849C18.0711 24.3198 17.6086 24.399 17.2991 24.6849L17.2606 24.7212C17.0199 24.9488 16.6933 25.0767 16.3526 25.0767C16.012 25.0767 15.6853 24.9488 15.4446 24.7212C15.2036 24.4939 15.0682 24.1854 15.0682 23.8636C15.0682 23.5419 15.2036 23.2334 15.4446 23.0061L15.4831 22.9697C15.7858 22.6775 15.8696 22.2407 15.6949 21.8667C15.5286 21.5003 15.1479 21.2622 14.7259 21.2606H14.6168C13.908 21.2606 13.3334 20.7179 13.3334 20.0485C13.3334 19.3791 13.908 18.8364 14.6168 18.8364H14.6746C15.1092 18.8268 15.4935 18.5672 15.6435 18.1818C15.8183 17.8078 15.7344 17.371 15.4318 17.0788L15.3933 17.0424C15.1523 16.8151 15.0169 16.5066 15.0169 16.1849C15.0169 15.8632 15.1523 15.5546 15.3933 15.3273C15.634 15.0997 15.9607 14.9718 16.3013 14.9718C16.6419 14.9718 16.9686 15.0997 17.2093 15.3273L17.2478 15.3636C17.5572 15.6495 18.0197 15.7287 18.4157 15.5636H18.4671C18.855 15.4066 19.1071 15.0471 19.1088 14.6485V14.5455C19.1088 13.876 19.6834 13.3333 20.3922 13.3333C21.101 13.3333 21.6756 13.876 21.6756 14.5455V14.6C21.6773 14.9986 21.9294 15.3582 22.3173 15.5152C22.7133 15.6802 23.1758 15.601 23.4852 15.3152L23.5237 15.2788C23.7645 15.0512 24.0911 14.9233 24.4318 14.9233C24.7724 14.9233 25.0991 15.0512 25.3398 15.2788C25.5808 15.5062 25.7162 15.8147 25.7162 16.1364C25.7162 16.4581 25.5808 16.7666 25.3398 16.9939L25.3013 17.0303C24.9986 17.3225 24.9148 17.7593 25.0895 18.1333V18.1818C25.2558 18.5482 25.6365 18.7863 26.0585 18.7879H26.1676C26.8764 18.7879 27.451 19.3306 27.451 20C27.451 20.6694 26.8764 21.2121 26.1676 21.2121H26.1098C25.6878 21.2137 25.3071 21.4518 25.1409 21.8182Z" stroke="white" stroke-width="2" stroke-linecap="round" stroke-linejoin="round"/>
</svg>
