<svg width="30" height="30" viewBox="0 0 30 30" fill="none" xmlns="http://www.w3.org/2000/svg">
<path fill-rule="evenodd" clip-rule="evenodd" d="M15 30C23.2843 30 30 23.2843 30 15C30 6.71573 23.2843 0 15 0C6.71573 0 0 6.71573 0 15C0 23.2843 6.71573 30 15 30Z" fill="#7E72F2"/>
<path fill-rule="evenodd" clip-rule="evenodd" d="M15.125 16.25C16.1605 16.25 17 15.4106 17 14.375C17 13.3395 16.1605 12.5 15.125 12.5C14.0895 12.5 13.25 13.3395 13.25 14.375C13.25 15.4106 14.0895 16.25 15.125 16.25Z" stroke="white" stroke-width="2" stroke-linecap="round" stroke-linejoin="round"/>
<path fill-rule="evenodd" clip-rule="evenodd" d="M19.2909 16.5909C19.1238 16.9696 19.204 17.4118 19.4934 17.7077L19.5302 17.7445C19.7607 17.9747 19.8902 18.2871 19.8902 18.6128C19.8902 18.9386 19.7607 19.2509 19.5302 19.4811C19.3 19.7116 18.9877 19.8411 18.6619 19.8411C18.3362 19.8411 18.0238 19.7116 17.7936 19.4811L17.7568 19.4443C17.4609 19.1549 17.0187 19.0747 16.64 19.2418C16.2691 19.4008 16.028 19.7649 16.0264 20.1684V20.2727C16.0264 20.9505 15.4769 21.5 14.7991 21.5C14.1213 21.5 13.5718 20.9505 13.5718 20.2727V20.2175C13.5621 19.8019 13.2993 19.4344 12.9091 19.2909C12.5304 19.1238 12.0882 19.204 11.7923 19.4934L11.7555 19.5302C11.5253 19.7607 11.2129 19.8902 10.8872 19.8902C10.5614 19.8902 10.2491 19.7607 10.0189 19.5302C9.78841 19.3 9.65892 18.9877 9.65892 18.6619C9.65892 18.3362 9.78841 18.0238 10.0189 17.7936L10.0557 17.7568C10.3451 17.4609 10.4253 17.0187 10.2582 16.64C10.0992 16.2691 9.73514 16.028 9.33159 16.0264H9.22727C8.54947 16.0264 8 15.4769 8 14.7991C8 14.1213 8.54947 13.5718 9.22727 13.5718H9.2825C9.69813 13.5621 10.0656 13.2993 10.2091 12.9091C10.3762 12.5304 10.296 12.0882 10.0066 11.7923L9.96977 11.7555C9.73932 11.5253 9.60983 11.2129 9.60983 10.8872C9.60983 10.5614 9.73932 10.2491 9.96977 10.0189C10.2 9.78841 10.5123 9.65892 10.8381 9.65892C11.1638 9.65892 11.4762 9.78841 11.7064 10.0189L11.7432 10.0557C12.0391 10.3451 12.4813 10.4253 12.86 10.2582H12.9091C13.28 10.0992 13.5211 9.73514 13.5227 9.33159V9.22727C13.5227 8.54947 14.0722 8 14.75 8C15.4278 8 15.9773 8.54947 15.9773 9.22727V9.2825C15.9789 9.68605 16.22 10.0501 16.5909 10.2091C16.9696 10.3762 17.4118 10.296 17.7077 10.0066L17.7445 9.96977C17.9747 9.73932 18.2871 9.60983 18.6128 9.60983C18.9386 9.60983 19.2509 9.73932 19.4811 9.96977C19.7116 10.2 19.8411 10.5123 19.8411 10.8381C19.8411 11.1638 19.7116 11.4762 19.4811 11.7064L19.4443 11.7432C19.1549 12.0391 19.0747 12.4813 19.2418 12.86V12.9091C19.4008 13.28 19.7649 13.5211 20.1684 13.5227H20.2727C20.9505 13.5227 21.5 14.0722 21.5 14.75C21.5 15.4278 20.9505 15.9773 20.2727 15.9773H20.2175C19.8139 15.9789 19.4499 16.22 19.2909 16.5909Z" stroke="white" stroke-width="2" stroke-linecap="round" stroke-linejoin="round"/>
</svg>
