<svg width="60" height="30" viewBox="0 0 60 30" fill="none" xmlns="http://www.w3.org/2000/svg">
<rect width="60" height="30" rx="3" fill="#6F64F8"/>
<path d="M19.058 17.424H17.098V20H16.09V17.424H10.56V16.696L15.754 10.2H16.874L11.862 16.528H16.118V14.26H17.098V16.528H19.058V17.424ZM21.0133 20.07C20.808 20.07 20.6306 19.9953 20.4813 19.846C20.3413 19.6967 20.2713 19.5147 20.2713 19.3C20.2713 19.0853 20.3413 18.908 20.4813 18.768C20.6306 18.6187 20.808 18.544 21.0133 18.544C21.2186 18.544 21.396 18.6187 21.5453 18.768C21.6946 18.908 21.7693 19.0853 21.7693 19.3C21.7693 19.5147 21.6946 19.6967 21.5453 19.846C21.396 19.9953 21.2186 20.07 21.0133 20.07ZM31.3764 17.424H29.4164V20H28.4084V17.424H22.8784V16.696L28.0724 10.2H29.1924L24.1804 16.528H28.4364V14.26H29.4164V16.528H31.3764V17.424Z" fill="white"/>
<path fill-rule="evenodd" clip-rule="evenodd" d="M43.5 9L45.354 12.9495L49.5 13.5868L46.5 16.6593L47.208 21L43.5 18.9495L39.792 21L40.5 16.6593L37.5 13.5868L41.646 12.9495L43.5 9V9Z" stroke="white" stroke-linecap="round" stroke-linejoin="round"/>
</svg>
