<svg width="60" height="30" viewBox="0 0 60 30" fill="none" xmlns="http://www.w3.org/2000/svg">
<rect width="60" height="30" rx="3" fill="#6F64F8"/>
<path d="M13.304 14.218C14.7227 14.218 15.754 14.4747 16.398 14.988C17.0513 15.492 17.378 16.2013 17.378 17.116C17.378 17.6853 17.2427 18.194 16.972 18.642C16.7107 19.09 16.314 19.4447 15.782 19.706C15.25 19.958 14.5967 20.084 13.822 20.084C13.122 20.084 12.4547 19.972 11.82 19.748C11.1947 19.5147 10.6907 19.2067 10.308 18.824L10.798 18.026C11.1247 18.362 11.554 18.6373 12.086 18.852C12.618 19.0573 13.192 19.16 13.808 19.16C14.62 19.16 15.2453 18.978 15.684 18.614C16.132 18.25 16.356 17.7647 16.356 17.158C16.356 16.486 16.104 15.9773 15.6 15.632C15.1053 15.2867 14.2653 15.114 13.08 15.114H10.994L11.498 10.2H16.86V11.096H12.38L12.044 14.218H13.304ZM19.4137 20.07C19.2084 20.07 19.031 19.9953 18.8817 19.846C18.7417 19.6967 18.6717 19.5147 18.6717 19.3C18.6717 19.0853 18.7417 18.908 18.8817 18.768C19.031 18.6187 19.2084 18.544 19.4137 18.544C19.619 18.544 19.7964 18.6187 19.9457 18.768C20.095 18.908 20.1697 19.0853 20.1697 19.3C20.1697 19.5147 20.095 19.6967 19.9457 19.846C19.7964 19.9953 19.619 20.07 19.4137 20.07ZM25.3801 20.084C24.6241 20.084 23.9474 19.8833 23.3501 19.482C22.7621 19.0807 22.3001 18.5067 21.9641 17.76C21.6374 17.004 21.4741 16.1173 21.4741 15.1C21.4741 14.0827 21.6374 13.2007 21.9641 12.454C22.3001 11.698 22.7621 11.1193 23.3501 10.718C23.9474 10.3167 24.6241 10.116 25.3801 10.116C26.1361 10.116 26.8081 10.3167 27.3961 10.718C27.9934 11.1193 28.4601 11.698 28.7961 12.454C29.1321 13.2007 29.3001 14.0827 29.3001 15.1C29.3001 16.1173 29.1321 17.004 28.7961 17.76C28.4601 18.5067 27.9934 19.0807 27.3961 19.482C26.8081 19.8833 26.1361 20.084 25.3801 20.084ZM25.3801 19.16C25.9494 19.16 26.4488 19.0013 26.8781 18.684C27.3168 18.3667 27.6574 17.9047 27.9001 17.298C28.1428 16.6913 28.2641 15.9587 28.2641 15.1C28.2641 14.2413 28.1428 13.5087 27.9001 12.902C27.6574 12.2953 27.3168 11.8333 26.8781 11.516C26.4488 11.1987 25.9494 11.04 25.3801 11.04C24.8108 11.04 24.3068 11.1987 23.8681 11.516C23.4388 11.8333 23.1028 12.2953 22.8601 12.902C22.6174 13.5087 22.4961 14.2413 22.4961 15.1C22.4961 15.9587 22.6174 16.6913 22.8601 17.298C23.1028 17.9047 23.4388 18.3667 23.8681 18.684C24.3068 19.0013 24.8108 19.16 25.3801 19.16Z" fill="white"/>
<path fill-rule="evenodd" clip-rule="evenodd" d="M43.5 9L45.354 12.9495L49.5 13.5868L46.5 16.6593L47.208 21L43.5 18.9495L39.792 21L40.5 16.6593L37.5 13.5868L41.646 12.9495L43.5 9V9Z" stroke="white" stroke-linecap="round" stroke-linejoin="round"/>
</svg>
