<svg width="60" height="30" viewBox="0 0 60 30" fill="none" xmlns="http://www.w3.org/2000/svg">
<rect width="60" height="30" rx="3" fill="#6F64F8"/>
<path d="M14.06 14.4C15.0867 14.456 15.866 14.736 16.398 15.24C16.9393 15.7347 17.21 16.3833 17.21 17.186C17.21 17.746 17.0747 18.2453 16.804 18.684C16.5333 19.1133 16.132 19.454 15.6 19.706C15.068 19.958 14.4193 20.084 13.654 20.084C12.9447 20.084 12.2727 19.972 11.638 19.748C11.0127 19.5147 10.5087 19.2067 10.126 18.824L10.616 18.026C10.9427 18.362 11.3767 18.6373 11.918 18.852C12.4593 19.0573 13.038 19.16 13.654 19.16C14.4567 19.16 15.0773 18.9873 15.516 18.642C15.9547 18.2873 16.174 17.802 16.174 17.186C16.174 16.5793 15.9547 16.1033 15.516 15.758C15.0773 15.4127 14.4147 15.24 13.528 15.24H12.828V14.498L15.544 11.096H10.532V10.2H16.832V10.914L14.06 14.4ZM19.3863 20.07C19.181 20.07 19.0037 19.9953 18.8543 19.846C18.7143 19.6967 18.6443 19.5147 18.6443 19.3C18.6443 19.0853 18.7143 18.908 18.8543 18.768C19.0037 18.6187 19.181 18.544 19.3863 18.544C19.5917 18.544 19.769 18.6187 19.9183 18.768C20.0677 18.908 20.1423 19.0853 20.1423 19.3C20.1423 19.5147 20.0677 19.6967 19.9183 19.846C19.769 19.9953 19.5917 20.07 19.3863 20.07ZM25.0659 14.4C26.0925 14.456 26.8719 14.736 27.4039 15.24C27.9452 15.7347 28.2159 16.3833 28.2159 17.186C28.2159 17.746 28.0805 18.2453 27.8099 18.684C27.5392 19.1133 27.1379 19.454 26.6059 19.706C26.0739 19.958 25.4252 20.084 24.6599 20.084C23.9505 20.084 23.2785 19.972 22.6439 19.748C22.0185 19.5147 21.5145 19.2067 21.1319 18.824L21.6219 18.026C21.9485 18.362 22.3825 18.6373 22.9239 18.852C23.4652 19.0573 24.0439 19.16 24.6599 19.16C25.4625 19.16 26.0832 18.9873 26.5219 18.642C26.9605 18.2873 27.1799 17.802 27.1799 17.186C27.1799 16.5793 26.9605 16.1033 26.5219 15.758C26.0832 15.4127 25.4205 15.24 24.5339 15.24H23.8339V14.498L26.5499 11.096H21.5379V10.2H27.8379V10.914L25.0659 14.4Z" fill="white"/>
<path fill-rule="evenodd" clip-rule="evenodd" d="M43.5 9L45.354 12.9495L49.5 13.5868L46.5 16.6593L47.208 21L43.5 18.9495L39.792 21L40.5 16.6593L37.5 13.5868L41.646 12.9495L43.5 9V9Z" stroke="white" stroke-linecap="round" stroke-linejoin="round"/>
</svg>
